<svg xmlns:dc="http://purl.org/dc/elements/1.1/" xmlns:cc="http://creativecommons.org/ns#" xmlns:rdf="http://www.w3.org/1999/02/22-rdf-syntax-ns#" xmlns:svg="http://www.w3.org/2000/svg" xmlns="http://www.w3.org/2000/svg" viewBox="0 0 280 280" fill="none"><metadata><rdf:RDF><cc:Work><dc:format>image/svg+xml</dc:format><dc:type rdf:resource="http://purl.org/dc/dcmitype/StillImage"/><dc:title>Avataaars</dc:title><dc:creator><cc:Agent><dc:title>Pablo Stanley</dc:title></cc:Agent></dc:creator><dc:source>https://avataaars.com/</dc:source><cc:license rdf:resource="https://avataaars.com/"/><dc:contributor><cc:Agent><dc:title>Florian Körner</dc:title></cc:Agent></dc:contributor></cc:Work></rdf:RDF></metadata><mask id="avatarsRadiusMask"><rect width="280" height="280" rx="0" ry="0" x="0" y="0" fill="#fff"/></mask><g mask="url(#avatarsRadiusMask)"><g transform="translate(40, 36)"><path d="M100 0C69.072 0 44 25.072 44 56v6.166c-5.675.952-10 5.888-10 11.834v14c0 6.052 4.48 11.058 10.305 11.881 2.067 19.806 14.458 36.541 31.695 44.73V163h-4c-39.764 0-72 32.236-72 72v9h200v-9c0-39.764-32.236-72-72-72h-4v-18.389c17.237-8.189 29.628-24.924 31.695-44.73C161.52 99.058 166 94.052 166 88V74c0-5.946-4.325-10.882-10-11.834V56c0-30.928-25.072-56-56-56z" fill="#F9D562"/><path d="M76 144.611v8A55.79 55.79 0 00100 158a55.789 55.789 0 0024-5.389v-8A55.789 55.789 0 01100 150a55.79 55.79 0 01-24-5.389z" fill="#000" fill-opacity=".1"/></g><g transform="translate(8, 170)"><path d="M132.5 54c18.502 0 33.5-9.626 33.5-21.5a14.08 14.08 0 00-.376-3.232C202.76 32.138 232 63.18 232 101.052V110H32v-8.948c0-38.217 29.775-69.48 67.393-71.855A14.108 14.108 0 0099 32.5C99 44.374 113.998 54 132.5 54z" fill="#3C4F5C"/><g transform="translate(77, 58)"><path fill-rule="evenodd" clip-rule="evenodd" d="M10.272 30.131c3.273-.558 5.73-3.553 5.18-6.787-.464-2.724-1.745-.343-2.976.853-1.335 1.298-2.45 2.574-4.536 2.054-3.607-.9-4.858-5.4-3.84-8.48a5.941 5.941 0 013.478-3.696c1.852-.746 3.204.09 4.748 1.094.289.188 1.73 1.37 1.994 1.25.462-.211.115-2.43.045-2.725-.338-1.421-1.266-2.575-2.617-3.238-3.333-1.635-7.514.489-9.64 3.055-4.884 5.897-.92 18.164 8.164 16.62zm10.011-19.093c0 .001-.001.003 0 0zm-1.594 12.865c.503 3.474 2.977 6.5 6.952 6.357 4.278-.155 6.056-4.098 7.009-7.486.956-3.399 2.05-7.683.663-11.093-.42-1.032-.685-2.38-1.716-1.53-1.253 1.033-1.409 4.039-1.515 5.442-.2 2.647-.781 9.97-4.108 10.944-4.179 1.222-4.047-5.848-4-7.977.04-1.896.246-3.734-.342-5.584-.313-.985-.59-2.44-1.528-1.634-1.29 1.108-1.453 3.828-1.544 5.327-.144 2.405-.213 4.842.129 7.234zm19.094 2.843c.188.412.624 1.402 1.02 1.679.944.66-.055.708.8-.059.813-.729 1.13-2.717 1.254-3.67.385-2.96-.12-6.109-.087-9.093 1.024 2.218 1.584 4.584 2.386 6.874.554 1.582 1.396 4.804 3.654 4.753 2.443-.055 2.57-3.145 2.894-4.819.461-2.37.97-4.721 1.676-7.037.092 3.91-1.427 10.995 2.108 13.92.014.013 1.432-4.15 1.467-4.406.223-1.691.083-3.444.107-5.148.051-3.597.718-8.003-.3-11.506-.328-1.134-.975-2.264-2.409-2.233-1.825.04-2.233 1.985-2.698 3.298-1.28 3.614-2.445 7.224-3.357 10.94-.548-1.68-5.339-16.421-8.789-10.901-.555.888-.315 2.218-.338 3.196-.044 1.879-.155 3.756-.196 5.635-.061 2.843-.41 5.907.808 8.577zM62.02 13.71c.72-.136 5.735-1.727 5.523-.136-.223 1.675-4.633 3.309-5.816 3.876a10.629 10.629 0 00-.643-3.567l.936-.173zm5.717-.64c-.027-.035 0 0 0 0zm.122 8.341c2.273 1.22 1.287 3.417-.426 4.608-.649.45-6.53 1.802-6.513 1.663 0 .004 0 .005-.004.005.18-1.695-.257-5.018 1-6.02 1.304-1.04 4.5-.808 5.943-.256zm.062-7.996c.001.003.009.023 0 0zM57.944 30.26c.224.551.86 1.912 1.566 1.945.86.04.794-1.043.929-1.71 3.441 1.721 8.498-.047 10.907-3.03 2.787-3.45 1.348-8.27-2.579-9.745 2.113-1.688 4.026-5.399 1.255-7.49-2.196-1.655-5.828-1.747-8.123-.302-2.735 1.723-3.85 5.833-4.09 9.006-.255 3.382-1.158 8.125.135 11.326zm18.106-8.389c.074 2.07-.15 4.287.332 6.306.171.717.433 1.511.76 2.162.611 1.215.31 1.05 1.032.36 2.172-2.083 1.209-8.575 1.157-11.249-.041-2.078.064-4.28-.513-6.283-.162-.562-1.123-3.348-1.655-3.284-.816.098-1.376 3.93-1.423 4.693-.148 2.396.226 4.895.31 7.295zm18.698.559c-1.583-.137-3.622.075-5.117.557.697-1.916 1.475-4.054 2.239-5.79a81.68 81.68 0 011.493-3.24c1.278 2.686 1.992 5.828 2.832 8.666-.48-.087-.962-.151-1.447-.193zm5.44.725c-.727-2.78-1.579-5.532-2.426-8.28-.537-1.743-1.13-3.911-2.6-5.168-4.163-3.561-6.527 5.85-7.548 8.232-.985 2.296-2.216 4.634-2.85 7.049a9.479 9.479 0 00-.244 3.652c.205 1.519-.004 1.741 1.294.915 1-.637 1.414-1.793 2.227-2.563.144-.136.218-.668.39-.755.189-.096 1.504.253 1.815.274 2.17.151 4.712-.218 6.715-1.054.205.842 1.627 5.962 2.977 5.773.597-.083.965-3.064.992-3.537.087-1.553-.352-3.049-.742-4.538zm9.114-13.723c-.264-1.203-.814-3.292-1.842-2.112-1.391 1.596-1.091 5.173-1.111 7.177-.015 1.451-1.552 12.062.556 11.883-.09 0 .845-1.668.981-1.922.814-1.524 1.13-2.97 1.328-4.722.365-3.237.783-7.111.088-10.304zm-1.138 20.869c-2.239-2.728-6.311.658-5.041 3.374 1.729 3.7 7.331-.56 5.041-3.374zm-13.266 4.244c-2.891-.738-6.297-.24-9.249-.152-3.081.092-6.16.264-9.24.357-6.568.198-13.124.092-19.692.038-12.454-.103-24.935.69-37.383.168-2.672-.112-5.545-.713-8.198-.209-.727.139-3.009.543-3.329 1.266-.336.76 1.402 1.555 2.331 1.955 2.422 1.044 5.329.858 7.9.964 2.93.12 5.887.058 8.819-.014 12.075-.297 24.089-1.343 36.18-1.165 6.976.103 13.937.038 20.913.002 3.319-.018 6.999.525 10.272-.063.552-.1 3.763-.854 3.807-1.836.02-.453-2.806-1.228-3.13-1.311z" fill="#fff"/></g></g><g transform="translate(86, 134)"><path fill-rule="evenodd" clip-rule="evenodd" d="M35.118 15.128C36.176 24.62 44.226 32 54 32c9.804 0 17.874-7.426 18.892-16.96.082-.767-.775-2.04-1.85-2.04H37.088c-1.08 0-2.075 1.178-1.97 2.128z" fill="#000" fill-opacity=".7"/><path d="M70 13H39a5 5 0 005 5h21a5 5 0 005-5z" fill="#fff"/><path d="M66.694 27.138A10.964 10.964 0 0059 24c-1.8 0-3.5.433-5 1.2-1.5-.767-3.2-1.2-5-1.2-2.995 0-5.71 1.197-7.693 3.138A18.93 18.93 0 0054 32c4.88 0 9.329-1.84 12.694-4.862z" fill="#FF4F6D"/></g><g transform="translate(112, 122)"><path fill-rule="evenodd" clip-rule="evenodd" d="M16 8c0 4.418 5.373 8 12 8s12-3.582 12-8" fill="#000" fill-opacity=".16"/></g><g transform="translate(84, 90)"><path fill-rule="evenodd" clip-rule="evenodd" d="M16.16 27.553C18.007 31.352 22.164 34 26.998 34c4.816 0 8.961-2.63 10.817-6.407.552-1.122-.233-2.04-1.024-1.36-2.451 2.107-5.932 3.423-9.793 3.423-3.74 0-7.124-1.235-9.56-3.228-.891-.728-1.818.014-1.278 1.125zm58 0C76.007 31.352 80.164 34 84.998 34c4.816 0 8.961-2.63 10.817-6.407.552-1.122-.233-2.04-1.024-1.36-2.451 2.107-5.932 3.423-9.793 3.423-3.74 0-7.124-1.235-9.56-3.228-.891-.728-1.818.014-1.278 1.125z" fill="#000" fill-opacity=".6"/></g><g transform="translate(84, 82)"><path d="M15.63 17.159c3.915-5.51 14.648-8.598 23.893-6.328a2 2 0 10.954-3.884C29.74 4.31 17.312 7.887 12.37 14.84a2 2 0 103.26 2.318zm80.74 0c-3.915-5.51-14.648-8.598-23.893-6.328a2 2 0 11-.954-3.884c10.737-2.637 23.165.94 28.108 7.894a2 2 0 01-3.26 2.318z" fill="#000" fill-opacity=".6"/></g><g transform="translate(7, 0)"><path d="M187.709 56.124c.892 3.247 2.163 11.95-.072 14.833-.746.962-5.841-1.74-7.966-2.913-1.243-.687-2.415-1.34-3.532-1.963-14.915-8.316-19.735-11.004-45.893-10.623-28.116.409-47.379 13.582-48.462 14.93-.754.937-1.716 3.44-2.508 10.412-.25 2.208-.32 4.97-.39 7.713-.15 5.922-.298 11.76-2.255 11.75-2.44-.013-2.97-23.786-1.917-33.217.04-.352.106-.773.178-1.226.223-1.407.496-3.129.155-4.114-.153-.444-.54-.714-.937-.991-.62-.434-1.265-.884-1.077-2.04.212-1.305 1.092-1.429 1.964-1.551.569-.08 1.135-.16 1.509-.567 1.128-1.228.453-1.867-.318-2.597-.455-.431-.944-.894-1.115-1.53-.634-2.36 1.024-3.094 2.687-3.83l.38-.169c.687-.31 1.103-.416 1.42-.498.593-.152.848-.217 1.886-1.348-2.131-1.563-2.902-3.691.016-4.833.56-.219 1.522-.208 2.5-.198 1.19.013 2.403.026 2.936-.374.148-.111.244-.53.33-.904.06-.264.115-.506.18-.598 1.35-1.931 1.234-3.399 1.078-5.39a59.637 59.637 0 01-.068-.926c-.129-2.038-.112-3.909 2.329-4.112 1.004-.084 1.894.39 2.77.858.544.29 1.083.578 1.641.728.875.235 1.1.435 1.321.432.189-.002.375-.152.958-.553 1.187-.818 1.31-2.05 1.434-3.29.11-1.087.219-2.181 1.042-3.013 1.576-1.59 2.798-.63 3.996.31.643.505 1.28 1.005 1.96 1.1 2.546.355 3.064-1.063 3.622-2.59.367-1.005.752-2.058 1.745-2.681 1.829-1.15 2.647-.048 3.434 1.013.499.672.985 1.327 1.709 1.384 1.004.079 2.506-1.093 3.839-2.133.814-.636 1.565-1.221 2.099-1.442 2.269-.936 3.917.064 5.585 1.077 1.408.855 2.83 1.718 4.652 1.434.298-.046.573-.091.831-.134 2.238-.37 3.107-.513 5.446.962 1.69 1.065 2.52.91 3.738.683.606-.113 1.308-.244 2.26-.251 1.111-.009 1.986.497 2.829.984.693.4 1.365.79 2.13.869.423.044.837-.155 1.259-.357.42-.202.848-.407 1.301-.38 1.827.111 2.688 1.493 3.554 2.884.668 1.072 1.339 2.15 2.46 2.652 1.619.726 3.436.248 5.171-.208.783-.206 1.549-.408 2.274-.493 3.959-.464 3.277 1.968 2.549 4.56-.318 1.132-.644 2.295-.595 3.26 1.148.268 2.305-.153 3.46-.573 1.092-.397 2.183-.794 3.264-.607 3.398.586 2.254 4.021 1.442 6.46l-.074.22c.635-.012 1.538-.205 2.552-.422 2.863-.611 6.619-1.414 7.78 1.129.479 1.051.014 2.31-.44 3.537-.313.847-.62 1.678-.607 2.415.026 1.527.71 2.896 1.396 4.267.455.91.912 1.823 1.175 2.783z" fill="#D6B370"/><path d="M186.361 73.608c.254.176.427.296.471.32 1.757.99 3.148 10.9 3.216 14.69.042 2.338.079 11.256-2.394 10.485-.753-.235-1.902-4.956-2.066-7.719-.163-2.763-1.733-12.164-4.141-16.49a11.833 11.833 0 00-.526-.814c-.649-.952-1.437-2.109-.919-2.745.722-.887 1.426-.575 2.259-.207.142.062.287.126.436.187.868.35 2.771 1.672 3.664 2.293z" fill="#D6B370"/></g></g></svg>